<svg xmlns="http://www.w3.org/2000/svg" viewBox="0 0 64 36" fill="currentColor">
  <rect x="0" y="6" width="64" height="24" rx="2" fill="none"
        stroke="currentColor" stroke-width="2"/>
  <g>
    <rect x="4"  y="10" width="4" height="4"/>
    <rect x="12" y="10" width="4" height="4"/>
    <rect x="20" y="10" width="4" height="4"/>
    <rect x="28" y="10" width="4" height="4"/>
    <rect x="36" y="10" width="4" height="4"/>
    <rect x="44" y="10" width="4" height="4"/>
    <rect x="52" y="10" width="4" height="4"/>
    <rect x="4"  y="22" width="4" height="4"/>
    <rect x="12" y="22" width="4" height="4"/>
    <rect x="20" y="22" width="4" height="4"/>
    <rect x="28" y="22" width="4" height="4"/>
    <rect x="36" y="22" width="4" height="4"/>
    <rect x="44" y="22" width="4" height="4"/>
    <rect x="52" y="22" width="4" height="4"/>
  </g>
</svg>
