<svg xmlns="http://www.w3.org/2000/svg" viewBox="85 77 113 113" fill="#edf060" fill-rule="evenodd" clip-rule="evenodd"><path d="M194.863,85.756l0,95.635c0,2.933 -2.38,5.313 -5.313,5.313l-95.636,0c-2.932,0 -5.313,-2.38 -5.313,-5.313l0,-95.635c0,-2.933 2.381,-5.314 5.313,-5.314l95.636,0c2.933,0 5.313,2.381 5.313,5.314Zm-14.821,80.087c0.706,0 1.279,-0.573 1.279,-1.278l0,-10.23c0,-0.706 -0.573,-1.279 -1.279,-1.279l-10.23,-0c-0.705,-0 -1.278,0.573 -1.278,1.279l-0,10.23c-0,0.705 0.573,1.278 1.278,1.278l10.23,0Zm0,-25.441c0.706,-0 1.279,-0.573 1.279,-1.279l0,-10.23c0,-0.706 -0.573,-1.279 -1.279,-1.279l-10.23,0c-0.705,0 -1.278,0.573 -1.278,1.279l-0,10.23c-0,0.706 0.573,1.279 1.278,1.279l10.23,-0Zm0,-25.442c0.706,0 1.279,-0.573 1.279,-1.279l0,-10.23c0,-0.706 -0.573,-1.279 -1.279,-1.279l-10.23,0c-0.705,0 -1.278,0.573 -1.278,1.279l-0,10.23c-0,0.706 0.573,1.279 1.278,1.279l10.23,0Zm-78.73,51.017l10.847,0l5.924,-15.769l26.16,0l6.016,15.769l11.212,0l-23.79,-63.805l-12.488,0l-23.881,63.805Zm19.688,-24.701l10.118,-27.801l10.209,27.801l-20.327,-0Z"/></svg>
